<svg width="63" height="63" viewBox="0 0 63 63" fill="none" xmlns="http://www.w3.org/2000/svg">
<circle cx="31.5" cy="31.5" r="31.5" transform="rotate(-180 31.5 31.5)" fill="#C9C9C9"/>
<path fill-rule="evenodd" clip-rule="evenodd" d="M25.8631 42.1808L15.7386 32.2817C15.1173 31.6742 15.1173 30.6894 15.7386 30.0819L25.8631 20.1828C26.4844 19.5754 27.4917 19.5754 28.113 20.1828C28.7343 20.7903 28.7343 21.7752 28.113 22.3826L20.7043 29.6263H45.4999C46.3785 29.6263 47.0908 30.3227 47.0908 31.1818C47.0908 32.0409 46.3785 32.7373 45.4999 32.7373H20.7043L28.113 39.981C28.7343 40.5884 28.7343 41.5733 28.113 42.1808C27.4917 42.7882 26.4844 42.7882 25.8631 42.1808Z" fill="white"/>
</svg>
