<svg width="44" height="43" viewBox="0 0 44 43" fill="none" xmlns="http://www.w3.org/2000/svg">
<path d="M22 1.43342L22.9317 0.344094C22.672 0.122029 22.3416 0 22 0C21.6584 0 21.328 0.122029 21.0683 0.344094L22 1.43342ZM1.93333 18.6334L1.00167 17.5441L0.5 17.9741V18.6334H1.93333ZM16.2667 41.5667V43C16.6468 43 17.0114 42.849 17.2802 42.5802C17.549 42.3114 17.7 41.9468 17.7 41.5667H16.2667ZM27.7333 41.5667H26.3C26.3 41.9468 26.451 42.3114 26.7198 42.5802C26.9886 42.849 27.3532 43 27.7333 43V41.5667ZM42.0667 18.6334H43.5V17.9741L42.9983 17.5441L42.0667 18.6334ZM4.8 43H16.2667V40.1333H4.8V43ZM42.9983 17.5441L22.9317 0.344094L21.0683 2.52276L41.135 19.7227L42.9983 17.5441ZM21.0683 0.344094L1.00167 17.5441L2.865 19.7227L22.9317 2.52276L21.0683 0.344094ZM17.7 41.5667V32.9667H14.8333V41.5667H17.7ZM26.3 32.9667V41.5667H29.1667V32.9667H26.3ZM27.7333 43H39.2V40.1333H27.7333V43ZM43.5 38.7V18.6334H40.6333V38.7H43.5ZM0.5 18.6334V38.7H3.36667V18.6334H0.5ZM22 28.6667C23.1404 28.6667 24.2342 29.1197 25.0406 29.9261C25.847 30.7325 26.3 31.8263 26.3 32.9667H29.1667C29.1667 31.066 28.4116 29.2431 27.0676 27.8991C25.7236 26.5551 23.9007 25.8 22 25.8V28.6667ZM22 25.8C20.0993 25.8 18.2764 26.5551 16.9324 27.8991C15.5884 29.2431 14.8333 31.066 14.8333 32.9667H17.7C17.7 31.8263 18.153 30.7325 18.9594 29.9261C19.7658 29.1197 20.8596 28.6667 22 28.6667V25.8ZM39.2 43C40.3404 43 41.4342 42.547 42.2406 41.7406C43.047 40.9342 43.5 39.8404 43.5 38.7H40.6333C40.6333 39.0802 40.4823 39.4447 40.2135 39.7135C39.9447 39.9823 39.5801 40.1333 39.2 40.1333V43ZM4.8 40.1333C4.41986 40.1333 4.05528 39.9823 3.78648 39.7135C3.51768 39.4447 3.36667 39.0802 3.36667 38.7H0.5C0.5 39.8404 0.953034 40.9342 1.75944 41.7406C2.56585 42.547 3.65957 43 4.8 43V40.1333Z" fill="#C9C9C9"/>
<path d="M1.84375 38.9688V19.4844L22 1.34375L42.1562 18.8125L42.8281 34.2656V38.9688L40.1406 40.9844H27.375V30.2344L24.6875 26.875H20.6562L16.625 30.2344V41.6562H4.53125L1.84375 38.9688Z" fill="#C9C9C9"/>
</svg>
