<svg width="63" height="63" viewBox="0 0 63 63" fill="none" xmlns="http://www.w3.org/2000/svg">
<circle cx="31.5" cy="31.5" r="31.5" fill="#C9C9C9"/>
<path fill-rule="evenodd" clip-rule="evenodd" d="M37.1369 20.8192L47.2614 30.7183C47.8827 31.3258 47.8827 32.3106 47.2614 32.9181L37.1369 42.8171C36.5156 43.4246 35.5083 43.4246 34.887 42.8171C34.2657 42.2097 34.2657 41.2248 34.887 40.6174L42.2957 33.3737L17.5001 33.3737C16.6215 33.3737 15.9092 32.6773 15.9092 31.8182C15.9092 30.9591 16.6215 30.2627 17.5001 30.2627L42.2957 30.2627L34.887 23.019C34.2657 22.4116 34.2657 21.4267 34.887 20.8192C35.5083 20.2118 36.5156 20.2118 37.1369 20.8192Z" fill="white"/>
</svg>
