<svg width="557" height="49" viewBox="0 0 557 49" fill="none" xmlns="http://www.w3.org/2000/svg">
<g clip-path="url(#clip0_4367_156)">
<mask id="mask0_4367_156" style="mask-type:luminance" maskUnits="userSpaceOnUse" x="0" y="0" width="557" height="49">
<path d="M556.08 0H0V48.11H556.08V0Z" fill="white"/>
</mask>
<g mask="url(#mask0_4367_156)">
<path d="M0 34.58V5.34998H8.01V35.27H22.17V42.75H4.65L1.5 38.85C0.43 37.47 0 36.18 0 34.58Z" fill="white"/>
<path d="M26.5 36.66L35.16 5.34998H44.35C46.06 5.34998 47.13 6.14998 47.61 7.85998L55.57 36.66C55.94 37.94 56 38.8 56 40.45V42.75H48.89L46.06 31.37L34.57 37.25L33.18 42.75H26.07V40.45C26.07 38.79 26.12 37.94 26.5 36.66ZM45.69 29.93L41.47 12.83H40.61L36.39 29.93H45.69Z" fill="white"/>
<path d="M59.63 34.58V5.34998H67.64V35.27H81.8V42.75H64.27L61.12 38.85C60.05 37.46 59.62 36.18 59.62 34.57" fill="white"/>
<path d="M94.37 5.34998H86.35V42.75H94.37V5.34998Z" fill="white"/>
<path d="M99.81 30.8801V17.2201C99.81 9.26005 104.14 4.93005 112.1 4.93005H115.61C123.46 4.93005 127.9 8.94005 127.9 16.0401H119.89V14.5401C119.89 13.1501 119.14 12.4001 117.75 12.4001H109.97C108.58 12.4001 107.83 13.1501 107.83 14.5401V33.5401C107.83 34.9301 108.58 35.6801 109.97 35.6801H117.75C119.14 35.6801 119.89 34.9301 119.89 33.5401V28.8401H114.33V21.3601H123.25L126.4 25.2601C127.47 26.6001 127.9 27.8201 127.9 29.5301V30.8701C127.9 38.8301 123.57 43.1601 115.61 43.1601H112.1C104.14 43.1601 99.81 38.8301 99.81 30.8701" fill="white"/>
<path d="M130.75 36.66L139.41 5.34998H148.6C150.31 5.34998 151.38 6.14998 151.86 7.85998L159.82 36.66C160.19 37.94 160.25 38.8 160.25 40.45V42.75H153.14L150.31 31.37L138.82 37.25L137.43 42.75H130.32V40.45C130.32 38.79 130.37 37.94 130.75 36.66ZM149.93 29.93L145.71 12.83H144.85L140.63 29.93H149.93Z" fill="white"/>
<path d="M202.04 28.77H200.54V30.63H202.04C202.17 30.63 202.28 30.58 202.37 30.49C202.45 30.39 202.49 30.26 202.49 30.11V29.31C202.49 29.15 202.45 29.03 202.37 28.93C202.29 28.83 202.18 28.78 202.04 28.78" fill="white"/>
<path d="M196.38 28.76H195.28C195.14 28.76 195.03 28.81 194.94 28.91C194.86 29.01 194.82 29.14 194.82 29.29V32.62C194.82 32.77 194.86 32.9 194.94 33C195.03 33.1 195.14 33.16 195.28 33.16H196.38C196.51 33.16 196.62 33.11 196.71 33C196.8 32.9 196.84 32.77 196.84 32.62V29.29C196.84 29.13 196.8 29.01 196.71 28.91C196.62 28.81 196.51 28.76 196.38 28.76Z" fill="white"/>
<path d="M190.88 28.75H189.31V30.76H190.88C191.01 30.76 191.13 30.71 191.21 30.61C191.3 30.51 191.34 30.38 191.34 30.23V29.28C191.34 29.12 191.3 29 191.21 28.9C191.13 28.8 191.01 28.75 190.88 28.75Z" fill="white"/>
<path d="M198.36 2.78617e-05C185.08 -0.0199721 174.29 10.73 174.27 24.02C174.25 37.31 185 48.09 198.29 48.11C211.57 48.13 222.36 37.38 222.38 24.09C222.39 10.81 211.64 0.0200279 198.36 2.78617e-05ZM189.35 11.12L201.72 11.14L199.82 14.14H187.46L189.35 11.12ZM186.81 32.81C186.81 33.2 186.68 33.52 186.41 33.79C186.14 34.06 185.81 34.2 185.43 34.2H183.8C183.41 34.2 183.09 34.07 182.83 33.81C182.57 33.55 182.44 33.23 182.44 32.84V32.19H183.44L183.59 32.79C183.66 33.04 183.83 33.16 184.11 33.17H185.21C185.35 33.17 185.46 33.12 185.55 33.02C185.63 32.92 185.67 32.79 185.67 32.64V31.93C185.67 31.58 185.52 31.4 185.21 31.4H183.82C183.44 31.4 183.11 31.26 182.84 30.99C182.57 30.72 182.44 30.39 182.44 30.01V29.07C182.44 28.69 182.58 28.37 182.84 28.1C183.11 27.83 183.44 27.7 183.82 27.7H185.43C185.81 27.7 186.13 27.83 186.39 28.09C186.65 28.35 186.78 28.67 186.78 29.06V29.64H185.78L185.63 29.11C185.55 28.86 185.38 28.73 185.12 28.73H184.03C183.89 28.73 183.78 28.78 183.69 28.88C183.6 28.98 183.56 29.11 183.56 29.26V29.81C183.56 30.15 183.71 30.32 184.02 30.32H185.41C185.78 30.32 186.11 30.46 186.38 30.73C186.65 31.01 186.78 31.33 186.78 31.7V32.8L186.81 32.81ZM192.48 30.44C192.48 30.82 192.34 31.15 192.08 31.41C191.8 31.68 191.48 31.81 191.1 31.81H189.31V34.19H188.16L188.17 27.69H191.11C191.49 27.69 191.82 27.83 192.09 28.1C192.36 28.37 192.49 28.69 192.49 29.06V30.43L192.48 30.44ZM197.98 32.82C197.98 33.22 197.85 33.54 197.57 33.81C197.3 34.08 196.98 34.22 196.59 34.21H195.04C194.65 34.21 194.33 34.07 194.06 33.8C193.79 33.53 193.65 33.21 193.66 32.81V29.08C193.66 28.71 193.8 28.38 194.07 28.12C194.34 27.85 194.67 27.72 195.05 27.72H196.6C196.99 27.72 197.31 27.86 197.58 28.12C197.86 28.38 197.99 28.71 197.98 29.09V32.82ZM198.28 26.17L182.62 26.15L186.44 20.14H183.64L185.55 17.13L197.2 17.15L195.29 20.16H190.07L188.14 23.16H196.55L204.25 11.05L213.79 26.2H210.18L208.28 23.19H202.63L204.54 20.17H206.39L204.24 16.75L198.28 26.18V26.17ZM202.68 34.22L201.63 31.68H200.54V34.22H199.39V27.72H202.26C202.65 27.72 202.97 27.86 203.24 28.13C203.51 28.4 203.64 28.72 203.64 29.09V30.22C203.64 30.51 203.56 30.78 203.39 31.02C203.22 31.25 203.01 31.42 202.76 31.53L203.9 34.22H202.68ZM208.84 28.78H207.17V34.23H206.02V28.78H204.37V27.73H208.84V28.79V28.78ZM214.04 32.85C214.04 33.24 213.9 33.56 213.64 33.83C213.37 34.1 213.04 34.24 212.66 34.23H211.04C210.65 34.23 210.33 34.1 210.07 33.84C209.81 33.58 209.68 33.26 209.68 32.87V32.22H210.68L210.83 32.82C210.9 33.07 211.07 33.19 211.35 33.19H212.45C212.59 33.19 212.71 33.14 212.79 33.04C212.87 32.94 212.91 32.81 212.91 32.66V31.95C212.91 31.6 212.76 31.42 212.45 31.42H211.06C210.68 31.42 210.35 31.28 210.09 31.01C209.82 30.74 209.68 30.41 209.68 30.03V29.09C209.68 28.71 209.82 28.39 210.09 28.12C210.36 27.85 210.69 27.72 211.07 27.72H212.67C213.05 27.72 213.37 27.85 213.64 28.11C213.9 28.37 214.03 28.69 214.03 29.08V29.66H213.03L212.88 29.13C212.8 28.88 212.63 28.75 212.37 28.75H211.28C211.14 28.75 211.02 28.8 210.94 28.9C210.86 29 210.81 29.13 210.81 29.29V29.84C210.81 30.18 210.96 30.35 211.27 30.35H212.65C213.03 30.35 213.35 30.49 213.62 30.76C213.9 31.03 214.03 31.36 214.03 31.73V32.83L214.04 32.85ZM214.75 28.06H214.51V28.58H214.39V28.06H214.15V27.95H214.76V28.06H214.75ZM215.48 28.58V28.19C215.48 28.19 215.48 28.15 215.48 28.12C215.47 28.15 215.47 28.17 215.45 28.19L215.25 28.5H215.23L215.03 28.19C215.03 28.19 215 28.15 214.99 28.13C214.99 28.15 215 28.18 215 28.2V28.59H214.89V27.96H215L215.24 28.34L215.49 27.96H215.59V28.59H215.48V28.58Z" fill="white"/>
<path d="M250.42 19.36H236.63V10.67H230.75V34.12H236.63V24.52H250.42V34.12H256.34V10.67H250.42V19.36Z" fill="white"/>
<path d="M273 19.26L265.25 10.67H257.86L268.77 22.86C269.55 23.74 269.99 24.86 269.99 26.04V34.13H275.87V26.07C275.87 24.88 276.31 23.74 277.11 22.86L288.2 10.67H280.64L272.99 19.26H273Z" fill="white"/>
<path d="M306.34 10.67H289.77V34.13H295.69V26.57C295.69 25.71 296.39 25.01 297.25 25.01H306.34C311.63 25.01 315.18 22.11 315.18 17.8C315.18 13.49 311.71 10.67 306.34 10.67ZM309.3 17.79C309.3 18.4 309.3 19.84 306.34 19.84H295.69V15.8H306.34C309.07 15.8 309.3 16.78 309.3 17.79Z" fill="white"/>
<path d="M323.48 24.55H339.49V19.44H323.48V15.83H341.63V10.67H317.56V34.12H342.32V28.99H323.48V24.55Z" fill="white"/>
<path d="M372.02 17.99C372.02 13.54 368.31 10.66 362.57 10.66H345.68V34.12H351.6V26.65C351.6 25.87 352.24 25.23 353.02 25.23H358.44C359.42 25.23 360.35 25.75 360.86 26.59L365.43 34.12H372.21L366.42 24.76C370.01 23.67 372.03 21.26 372.03 17.99M366.14 17.82C366.14 19.71 364.2 20.1 362.57 20.1H351.6V15.77H362.57C364.94 15.77 366.14 16.46 366.14 17.82Z" fill="white"/>
<path d="M389.14 23.31L380.41 10.67H375.04V34.13H380.85V21.29L385.34 27.71C386.22 28.97 387.6 29.69 389.13 29.7C389.14 29.7 389.15 29.7 389.16 29.7C390.68 29.7 392.06 28.99 392.95 27.76L397.65 21.22V34.13H403.57V10.67H398.17L389.13 23.31H389.14Z" fill="white"/>
<path d="M433.53 15.88H441.5C442.38 15.88 443.09 16.59 443.09 17.47V34.2H448.9V17.47C448.9 16.59 449.61 15.88 450.49 15.88H458.36V10.75H433.53V15.88Z" fill="white"/>
<path d="M465.94 10.75H460.1V34.21H465.94V10.75Z" fill="white"/>
<path d="M517.43 10.74V25.7L502.7 10.74H497.48V34.2H503.32V19.29L518.08 34.2H523.38V10.74H517.43Z" fill="white"/>
<path d="M422.63 15.4C425.53 15.4 427.89 17.76 427.89 20.66V24.28C427.89 27.18 425.53 29.54 422.63 29.54H416.65C413.75 29.54 411.39 27.18 411.39 24.28V20.66C411.39 17.76 413.75 15.4 416.65 15.4H422.63ZM422.63 10.17H416.65C410.85 10.17 406.16 14.87 406.16 20.66V24.28C406.16 30.07 410.86 34.77 416.65 34.77H422.63C428.43 34.77 433.12 30.07 433.12 24.28V20.66C433.12 14.86 428.42 10.17 422.63 10.17Z" fill="white"/>
<path d="M484.92 15.4C487.82 15.4 490.18 17.76 490.18 20.66V24.28C490.18 27.18 487.82 29.54 484.92 29.54H478.94C476.04 29.54 473.68 27.18 473.68 24.28V20.66C473.68 17.76 476.04 15.4 478.94 15.4H484.92ZM484.92 10.17H478.94C473.14 10.17 468.45 14.87 468.45 20.66V24.28C468.45 30.07 473.15 34.77 478.94 34.77H484.92C490.72 34.77 495.41 30.07 495.41 24.28V20.66C495.41 14.86 490.71 10.17 484.92 10.17Z" fill="white"/>
<path d="M553.74 11.5099L541.7 32.3599L529.66 11.5099H533.7L540.77 23.7499L541.7 25.3599L542.63 23.7499L549.7 11.5099H553.74ZM555.59 10.4399H549.07L541.69 23.2199L534.31 10.4399H527.79L541.68 34.4999L555.57 10.4399H555.59Z" fill="white"/>
</g>
</g>
<defs>
<clipPath id="clip0_4367_156">
<rect width="556.08" height="48.11" fill="white"/>
</clipPath>
</defs>
</svg>
